<?xml version="1.0" encoding="UTF-8"?>
<svg id="Calque_2" xmlns="http://www.w3.org/2000/svg" viewBox="0 0 1910.26 373.81">
  <defs>
    <style>
      .cls-1 {
        fill: #fc0;
      }

      .cls-2 {
        fill: #1c1e21;
      }
    </style>
  </defs>
  <g id="Calque_1-2" data-name="Calque_1">
    <g>
      <g>
        <path class="cls-1" d="M331.11,146.09c0,91.44-74.12,165.56-165.56,165.56S0,237.53,0,146.09h41.22c0,68.67,55.66,124.34,124.33,124.34s124.34-55.67,124.34-124.34h41.22Z"/>
        <g>
          <circle class="cls-2" cx="217.46" cy="343.01" r="30.8" transform="translate(-182.66 412.66) rotate(-67.5)"/>
          <circle class="cls-2" cx="113.64" cy="343.01" r="30.8" transform="translate(-246.75 316.74) rotate(-67.5)"/>
        </g>
        <g>
          <rect class="cls-1" x="206.73" y="42.47" width="82.86" height="82.86"/>
          <polygon class="cls-2" points="223.89 191.13 165.3 249.72 41.52 125.94 43.12 124.34 100.11 67.35 178.85 146.09 223.89 191.13"/>
        </g>
      </g>
      <g>
        <path class="cls-2" d="M528.27,322.56c-20.95,0-40.1-4.98-57.46-14.94-17.36-9.96-31.02-23.65-40.98-41.09-9.96-17.43-14.94-36.69-14.94-57.79,0-32.37,10.91-59.58,32.74-81.63,21.82-22.04,48.7-33.07,80.64-33.07,25.63,0,48.3,7.66,68.01,22.96,19.7,15.31,31.38,34.39,35.05,57.24h-42.41c-3.22-11.72-10.55-21.42-21.97-29.11s-24.32-11.54-38.67-11.54c-20.65,0-37.98,7.18-51.97,21.53-13.99,14.36-20.98,32.23-20.98,53.61s6.99,38.56,20.98,52.84c13.99,14.28,31.31,21.42,51.97,21.42,14.65,0,27.76-3.92,39.33-11.75,11.57-7.83,18.82-17.98,21.75-30.43h41.97c-3.22,23.88-14.65,43.47-34.28,58.78-19.63,15.31-42.56,22.96-68.77,22.96Z"/>
        <path class="cls-2" d="M763.51,94.04c28.27,0,50.65,8.87,67.13,26.59,16.48,17.73,24.72,41.75,24.72,72.07v125.46h-41.53v-121.07c0-19.19-5.42-34.57-16.26-46.14-10.84-11.57-25.34-17.36-43.51-17.36s-33.18,5.79-44.17,17.36c-10.99,11.57-16.48,26.95-16.48,46.14v121.07h-41.97V3.08h41.97v133.81c7.03-13.62,16.59-24.17,28.67-31.64s25.89-11.21,41.42-11.21Z"/>
        <path class="cls-2" d="M1069.28,98.66h41.53v219.51h-41.53v-45.04c-8.21,15.97-19.41,28.2-33.62,36.69-14.21,8.49-30.91,12.74-50.1,12.74-29.59,0-54.75-11.1-75.48-33.29-20.73-22.19-31.09-49.18-31.09-80.97s10.36-58.78,31.09-80.97c20.73-22.19,45.89-33.29,75.48-33.29,19.19,0,35.89,4.25,50.1,12.74,14.21,8.5,25.41,20.73,33.62,36.69v-44.82ZM994.13,283.01c21.68,0,39.62-7.03,53.83-21.09,14.21-14.06,21.31-31.93,21.31-53.61s-7.11-39.55-21.31-53.61c-14.21-14.06-32.16-21.09-53.83-21.09s-38.45,7.25-52.95,21.75-21.75,32.16-21.75,52.95,7.25,38.45,21.75,52.95,32.15,21.75,52.95,21.75Z"/>
        <path class="cls-2" d="M1247.83,94.48c7.03,0,13.77.88,20.21,2.64v38.45c-7.77-2.49-14.94-3.74-21.53-3.74-16.85,0-30.87,5.75-42.08,17.25-11.21,11.5-16.81,26.62-16.81,45.37v123.71h-41.97V98.66h41.97v31.86c6.59-11.28,15.08-20.1,25.49-26.48,10.4-6.37,21.97-9.56,34.72-9.56Z"/>
        <path class="cls-2" d="M1306.19,0c7.47,0,13.99,2.78,19.56,8.35,5.57,5.57,8.35,12.08,8.35,19.56s-2.78,14.17-8.35,19.67c-5.57,5.49-12.08,8.24-19.56,8.24s-14.36-2.71-19.78-8.13c-5.42-5.42-8.13-12.01-8.13-19.78s2.75-13.99,8.24-19.56c5.49-5.57,12.05-8.35,19.67-8.35ZM1285.09,98.66h41.97v219.51h-41.97V98.66Z"/>
        <path class="cls-2" d="M1463.64,94.04c20.95,0,40.06,5.02,57.35,15.05,17.28,10.04,30.94,23.84,40.98,41.42,10.03,17.58,15.05,36.99,15.05,58.23,0,32.08-10.95,59.07-32.85,80.97s-48.75,32.85-80.53,32.85c-20.95,0-40.1-4.98-57.46-14.94-17.36-9.96-31.02-23.65-40.98-41.09-9.96-17.43-14.94-36.69-14.94-57.79,0-32.37,10.91-59.58,32.74-81.63,21.83-22.04,48.7-33.07,80.64-33.07ZM1463.64,133.59c-20.65,0-37.98,7.18-51.97,21.53-13.99,14.36-20.98,32.23-20.98,53.61s6.99,38.56,20.98,52.84c13.99,14.28,31.31,21.42,51.97,21.42s37.79-7.17,51.86-21.53c14.06-14.35,21.09-31.93,21.09-52.73s-7.03-39.25-21.09-53.61c-14.06-14.35-31.35-21.53-51.86-21.53Z"/>
        <path class="cls-2" d="M1649.22,318.16l-79.54-219.51h43.95l52.73,157.32,56.25-157.32h33.84l57.13,157.32,52.08-157.32h44.6l-79.98,219.51h-33.4l-57.13-157.54-57.57,157.54h-32.96Z"/>
      </g>
    </g>
  </g>
</svg>