<?xml version="1.0" encoding="UTF-8"?>
<svg version="1.1" xmlns="http://www.w3.org/2000/svg" width="400" height="400">
<path d="M0 0 C132 0 264 0 400 0 C400 132 400 264 400 400 C268 400 136 400 0 400 C0 268 0 136 0 0 Z " fill="#FEFEFE" transform="translate(0,0)"/>
<path d="M0 0 C6.44114824 4.99035262 12.36221454 10.2937568 17.35546875 16.75634766 C17.90332031 17.45630859 18.45117188 18.15626953 19.015625 18.87744141 C28.16739811 31.23963151 34.59033197 44.88563936 38.35546875 59.75634766 C38.60039062 60.69994141 38.8453125 61.64353516 39.09765625 62.61572266 C44.60293396 88.70923071 38.47880828 117.37801444 24.35546875 139.75634766 C10.88842492 159.35967928 -5.78732004 172.51799865 -27.64453125 181.75634766 C-28.83369141 182.26294922 -28.83369141 182.26294922 -30.046875 182.77978516 C-53.04721501 191.97992116 -82.03327255 189.57578537 -104.64453125 180.75634766 C-106.65807145 179.78389927 -108.66298366 178.79243123 -110.64453125 177.75634766 C-108.068341 175.16605417 -105.48027462 172.59828506 -102.84765625 170.06494141 C-80.15110728 148.12787003 -65.88993648 119.88234169 -65.25634766 88.0774231 C-65.23004495 86.03284411 -65.2163232 83.98856991 -65.20703125 81.94384766 C-65.19687988 80.66960937 -65.18672852 79.39537109 -65.17626953 78.08251953 C-65.46873012 46.1672431 -80.55606693 18.28466064 -102.91088867 -3.66430664 C-103.99734673 -4.72009546 -105.08590564 -5.77373114 -106.17749023 -6.82421875 C-107.6832689 -8.2811329 -109.16672346 -9.75842115 -110.64453125 -11.24365234 C-76.82199613 -31.67628924 -30.11213446 -22.77185466 0 0 Z " fill="#4785EB" transform="translate(323.64453125,165.24365234375)"/>
<path d="M0 0 C21.55276954 17.02805906 37.60614622 41.52297857 41.25 69.1875 C41.27804652 70.85393067 41.28526547 72.52120647 41.25 74.1875 C40.60675781 74.00574219 39.96351563 73.82398438 39.30078125 73.63671875 C2.74706821 63.46842482 -29.0436142 63.53888698 -62.75 82.1875 C-90.41126132 98.00903673 -108.71008749 123.00654055 -117.68359375 153.34375 C-119.25038487 159.28106373 -120.24026621 165.07069454 -120.75 171.1875 C-125.24508799 169.75761826 -128.21331517 167.26362471 -131.5625 164.0625 C-132.35406494 163.31564941 -132.35406494 163.31564941 -133.16162109 162.55371094 C-134.21673154 161.55494603 -135.26889223 160.5530544 -136.31787109 159.54785156 C-137.51116005 158.41436945 -138.73100983 157.3089319 -139.95703125 156.2109375 C-156.86650849 140.57569786 -167.67116776 114.68966262 -168.87109375 91.88623047 C-170.06055242 60.87109564 -160.33611002 34.7963968 -139.8125 11.4375 C-127.47634573 -1.76899645 -111.88064807 -11.19184466 -94.75 -16.8125 C-93.79649658 -17.12791748 -93.79649658 -17.12791748 -92.82373047 -17.44970703 C-61.72342342 -27.27208458 -25.7016671 -19.49202212 0 0 Z " fill="#3BB953" transform="translate(262.75,64.8125)"/>
<path d="M0 0 C1.91758277 3.35372987 2.60138192 6.53004983 3.3125 10.3125 C9.77921984 41.06111884 26.46802741 65.859711 52 84 C52.86496094 84.62132812 53.72992188 85.24265625 54.62109375 85.8828125 C76.98621679 101.06522479 107.65876652 107.49818942 134.29296875 103.4296875 C137.9013293 102.73082052 141.44290477 101.92299035 145 101 C146.00546875 100.74863281 147.0109375 100.49726563 148.046875 100.23828125 C153.78125267 98.74132354 159.4041043 96.94820072 165 95 C164.90129031 116.51871309 154.37527849 137.70737796 141 154 C140.39542969 154.75667969 139.79085937 155.51335937 139.16796875 156.29296875 C137.83877203 157.91323044 136.42870102 159.46675988 135 161 C134.34 161 133.68 161 133 161 C133 161.66 133 162.32 133 163 C108.84424489 184.80625917 81.37088508 192.44216924 49.27978516 191.20263672 C25.99530498 189.76403924 5.27898318 178.05468707 -12 163 C-12.62519531 162.45988281 -13.25039062 161.91976562 -13.89453125 161.36328125 C-30.60506923 145.82678575 -42.80296949 120.10360282 -44.22119141 97.4699707 C-44.33972598 93.58279341 -44.38714106 89.70103987 -44.375 85.8125 C-44.37412384 85.12613464 -44.37324768 84.43976929 -44.37234497 83.73260498 C-44.32824024 73.25887591 -43.68177887 63.90911999 -40 54 C-39.76394043 53.32404785 -39.52788086 52.6480957 -39.28466797 51.95166016 C-31.65371505 30.27896665 -17.86144916 14.08965972 0 0 Z " fill="#DA3136" transform="translate(81,162)"/>
<path d="M0 0 C3.05731868 1.60880265 5.60314815 3.74591305 8.19921875 5.99609375 C9.0641394 6.74306519 9.0641394 6.74306519 9.9465332 7.50512695 C28.7535426 24.0067779 41.58314616 47.11740881 45.01171875 72.05859375 C45.07379625 73.68254123 45.09883916 75.30864672 45.07421875 76.93359375 C45.06519531 77.71476562 45.05617188 78.4959375 45.046875 79.30078125 C45.03527344 79.88085938 45.02367187 80.4609375 45.01171875 81.05859375 C19.35005278 92.63444015 -11.11114816 96.06664014 -37.98828125 86.05859375 C-41.09895891 84.8475961 -44.01165461 83.57498846 -46.98828125 82.05859375 C-46.13397263 54.3362791 -34.15385464 30.0671647 -14.80078125 10.55859375 C-14.21876953 9.97102295 -13.63675781 9.38345215 -13.03710938 8.77807617 C-4.23750056 0.12487723 -4.23750056 0.12487723 0 0 Z " fill="#F3C20D" transform="translate(200.98828125,161.94140625)"/>
<path d="M0 0 C-0.33 2.31 -0.66 4.62 -1 7 C-1.33 5.68 -1.66 4.36 -2 3 C-3.32 2.67 -4.64 2.34 -6 2 C-1.125 0 -1.125 0 0 0 Z " fill="#DF4D51" transform="translate(246,257)"/>
</svg>
