<?xml version="1.0" encoding="UTF-8"?>
<svg version="1.1" xmlns="http://www.w3.org/2000/svg" width="192" height="192">
<path d="M0 0 C9.1541148 7.60256992 16.79272478 18.28789706 19.41015625 30.04296875 C19.58933594 30.79707031 19.76851562 31.55117188 19.953125 32.328125 C22.8798057 49.71310862 18.03239273 66.54615328 8.41015625 81.04296875 C5.06077858 85.65267925 1.2727814 89.86224506 -2.58984375 94.04296875 C-3.13398926 94.63529297 -3.67813477 95.22761719 -4.23876953 95.83789062 C-7.0331044 98.87398887 -9.84262304 101.89533606 -12.6640625 104.90625 C-16.55305402 109.06260202 -20.2840567 113.33963221 -23.97753906 117.66992188 C-25.03461217 118.90924897 -26.09216417 120.14816773 -27.15014648 121.38671875 C-28.21138387 122.62995078 -29.27087696 123.8746745 -30.32836914 125.12109375 C-30.82071045 125.69859375 -31.31305176 126.27609375 -31.8203125 126.87109375 C-32.25754639 127.38575195 -32.69478027 127.90041016 -33.14526367 128.43066406 C-33.6219751 128.96272461 -34.09868652 129.49478516 -34.58984375 130.04296875 C-35.19787842 130.75235596 -35.80591309 131.46174316 -36.43237305 132.19262695 C-41.51654709 136.5530383 -50.39064058 135.10155489 -56.75 134.8828125 C-62.41352794 134.35483387 -64.8785882 133.28770784 -68.65234375 129.04296875 C-70.01727198 127.07837536 -71.334887 125.07956881 -72.58984375 123.04296875 C-73.74752945 121.66322695 -74.93296327 120.30600066 -76.15234375 118.98046875 C-76.70019531 118.35011719 -77.24804688 117.71976563 -77.8125 117.0703125 C-79.88343862 114.70807702 -81.98497223 112.37501022 -84.08984375 110.04296875 C-87.35891456 106.42048488 -90.59395103 102.77324097 -93.78515625 99.08203125 C-95.06528457 97.6356525 -96.37605791 96.21613836 -97.70703125 94.81640625 C-111.4499391 80.21753875 -121.15199706 62.69865685 -121.6875 42.328125 C-120.91953208 25.37663808 -113.7986869 12.27022178 -101.68359375 0.62109375 C-96.55336923 -3.85123928 -90.65920645 -6.95436881 -84.58984375 -9.95703125 C-83.32720703 -10.58738281 -83.32720703 -10.58738281 -82.0390625 -11.23046875 C-55.18401409 -23.2362551 -22.88259134 -17.29136993 0 0 Z " fill="#E35A3E" transform="translate(145.58984375,22.95703125)"/>
<path d="M0 0 C7.59 0 15.18 0 23 0 C23.53571429 13.125 23.53571429 13.125 21.25 16.6875 C17.9225811 20.10734721 16.33751234 20.87840797 11.5625 21.3125 C6.96956917 20.90961133 4.57300197 19.59940728 1.37109375 16.34375 C-1.42343496 11.56677785 -0.14820388 5.3353398 0 0 Z " fill="#E35A3E" transform="translate(84,167)"/>
</svg>
